# Futuristic AI Delivery Drone OBJ Model
# Generated programmatically
v -0.4000 -0.2000 -0.4000
v 0.4000 -0.2000 -0.4000
v 0.4000 0.2000 -0.4000
v -0.4000 0.2000 -0.4000
v -0.4000 -0.2000 0.4000
v 0.4000 -0.2000 0.4000
v 0.4000 0.2000 0.4000
v -0.4000 0.2000 0.4000
v 0.2000 -0.1000 0.4000
v 0.2000 0.1000 0.4000
v 0.1732 -0.1000 0.5000
v 0.1732 0.1000 0.5000
v 0.1000 -0.1000 0.5732
v 0.1000 0.1000 0.5732
v 0.0000 -0.1000 0.6000
v 0.0000 0.1000 0.6000
v -0.1000 -0.1000 0.5732
v -0.1000 0.1000 0.5732
v -0.1732 -0.1000 0.5000
v -0.1732 0.1000 0.5000
v -0.2000 -0.1000 0.4000
v -0.2000 0.1000 0.4000
v -0.1732 -0.1000 0.3000
v -0.1732 0.1000 0.3000
v -0.1000 -0.1000 0.2268
v -0.1000 0.1000 0.2268
v -0.0000 -0.1000 0.2000
v -0.0000 0.1000 0.2000
v 0.1000 -0.1000 0.2268
v 0.1000 0.1000 0.2268
v 0.1732 -0.1000 0.3000
v 0.1732 0.1000 0.3000
v 0.0000 -0.1000 0.4000
v 0.0000 0.1000 0.4000
v -1.0000 0.0500 -0.6500
v -0.2000 0.0500 -0.6500
v -0.2000 0.1500 -0.6500
v -1.0000 0.1500 -0.6500
v -1.0000 0.0500 -0.5500
v -0.2000 0.0500 -0.5500
v -0.2000 0.1500 -0.5500
v -1.0000 0.1500 -0.5500
v 0.2000 0.0500 -0.6500
v 1.0000 0.0500 -0.6500
v 1.0000 0.1500 -0.6500
v 0.2000 0.1500 -0.6500
v 0.2000 0.0500 -0.5500
v 1.0000 0.0500 -0.5500
v 1.0000 0.1500 -0.5500
v 0.2000 0.1500 -0.5500
v -1.0000 0.0500 0.5500
v -0.2000 0.0500 0.5500
v -0.2000 0.1500 0.5500
v -1.0000 0.1500 0.5500
v -1.0000 0.0500 0.6500
v -0.2000 0.0500 0.6500
v -0.2000 0.1500 0.6500
v -1.0000 0.1500 0.6500
v 0.2000 0.0500 0.5500
v 1.0000 0.0500 0.5500
v 1.0000 0.1500 0.5500
v 0.2000 0.1500 0.5500
v 0.2000 0.0500 0.6500
v 1.0000 0.0500 0.6500
v 1.0000 0.1500 0.6500
v 0.2000 0.1500 0.6500
v -0.9000 0.0750 -0.6000
v -0.9000 0.2250 -0.6000
v -0.9293 0.0750 -0.5293
v -0.9293 0.2250 -0.5293
v -1.0000 0.0750 -0.5000
v -1.0000 0.2250 -0.5000
v -1.0707 0.0750 -0.5293
v -1.0707 0.2250 -0.5293
v -1.1000 0.0750 -0.6000
v -1.1000 0.2250 -0.6000
v -1.0707 0.0750 -0.6707
v -1.0707 0.2250 -0.6707
v -1.0000 0.0750 -0.7000
v -1.0000 0.2250 -0.7000
v -0.9293 0.0750 -0.6707
v -0.9293 0.2250 -0.6707
v -1.0000 0.0750 -0.6000
v -1.0000 0.2250 -0.6000
v -1.3000 0.2400 -0.6250
v -0.7000 0.2400 -0.6250
v -0.7000 0.2600 -0.6250
v -1.3000 0.2600 -0.6250
v -1.3000 0.2400 -0.5750
v -0.7000 0.2400 -0.5750
v -0.7000 0.2600 -0.5750
v -1.3000 0.2600 -0.5750
v 1.1000 0.0750 -0.6000
v 1.1000 0.2250 -0.6000
v 1.0707 0.0750 -0.5293
v 1.0707 0.2250 -0.5293
v 1.0000 0.0750 -0.5000
v 1.0000 0.2250 -0.5000
v 0.9293 0.0750 -0.5293
v 0.9293 0.2250 -0.5293
v 0.9000 0.0750 -0.6000
v 0.9000 0.2250 -0.6000
v 0.9293 0.0750 -0.6707
v 0.9293 0.2250 -0.6707
v 1.0000 0.0750 -0.7000
v 1.0000 0.2250 -0.7000
v 1.0707 0.0750 -0.6707
v 1.0707 0.2250 -0.6707
v 1.0000 0.0750 -0.6000
v 1.0000 0.2250 -0.6000
v 0.7000 0.2400 -0.6250
v 1.3000 0.2400 -0.6250
v 1.3000 0.2600 -0.6250
v 0.7000 0.2600 -0.6250
v 0.7000 0.2400 -0.5750
v 1.3000 0.2400 -0.5750
v 1.3000 0.2600 -0.5750
v 0.7000 0.2600 -0.5750
v -0.9000 0.0750 0.6000
v -0.9000 0.2250 0.6000
v -0.9293 0.0750 0.6707
v -0.9293 0.2250 0.6707
v -1.0000 0.0750 0.7000
v -1.0000 0.2250 0.7000
v -1.0707 0.0750 0.6707
v -1.0707 0.2250 0.6707
v -1.1000 0.0750 0.6000
v -1.1000 0.2250 0.6000
v -1.0707 0.0750 0.5293
v -1.0707 0.2250 0.5293
v -1.0000 0.0750 0.5000
v -1.0000 0.2250 0.5000
v -0.9293 0.0750 0.5293
v -0.9293 0.2250 0.5293
v -1.0000 0.0750 0.6000
v -1.0000 0.2250 0.6000
v -1.3000 0.2400 0.5750
v -0.7000 0.2400 0.5750
v -0.7000 0.2600 0.5750
v -1.3000 0.2600 0.5750
v -1.3000 0.2400 0.6250
v -0.7000 0.2400 0.6250
v -0.7000 0.2600 0.6250
v -1.3000 0.2600 0.6250
v 1.1000 0.0750 0.6000
v 1.1000 0.2250 0.6000
v 1.0707 0.0750 0.6707
v 1.0707 0.2250 0.6707
v 1.0000 0.0750 0.7000
v 1.0000 0.2250 0.7000
v 0.9293 0.0750 0.6707
v 0.9293 0.2250 0.6707
v 0.9000 0.0750 0.6000
v 0.9000 0.2250 0.6000
v 0.9293 0.0750 0.5293
v 0.9293 0.2250 0.5293
v 1.0000 0.0750 0.5000
v 1.0000 0.2250 0.5000
v 1.0707 0.0750 0.5293
v 1.0707 0.2250 0.5293
v 1.0000 0.0750 0.6000
v 1.0000 0.2250 0.6000
v 0.7000 0.2400 0.5750
v 1.3000 0.2400 0.5750
v 1.3000 0.2600 0.5750
v 0.7000 0.2600 0.5750
v 0.7000 0.2400 0.6250
v 1.3000 0.2400 0.6250
v 1.3000 0.2600 0.6250
v 0.7000 0.2600 0.6250
f 1 2 3 4
f 5 8 7 6
f 1 5 6 2
f 4 3 7 8
f 1 4 8 5
f 2 6 7 3
f 9 11 12 10
f 11 13 14 12
f 13 15 16 14
f 15 17 18 16
f 17 19 20 18
f 19 21 22 20
f 21 23 24 22
f 23 25 26 24
f 25 27 28 26
f 27 29 30 28
f 29 31 32 30
f 31 9 10 32
f 11 9 33
f 10 12 34
f 13 11 33
f 12 14 34
f 15 13 33
f 14 16 34
f 17 15 33
f 16 18 34
f 19 17 33
f 18 20 34
f 21 19 33
f 20 22 34
f 23 21 33
f 22 24 34
f 25 23 33
f 24 26 34
f 27 25 33
f 26 28 34
f 29 27 33
f 28 30 34
f 31 29 33
f 30 32 34
f 9 31 33
f 32 10 34
f 35 36 37 38
f 39 42 41 40
f 35 39 40 36
f 38 37 41 42
f 35 38 42 39
f 36 40 41 37
f 43 44 45 46
f 47 50 49 48
f 43 47 48 44
f 46 45 49 50
f 43 46 50 47
f 44 48 49 45
f 51 52 53 54
f 55 58 57 56
f 51 55 56 52
f 54 53 57 58
f 51 54 58 55
f 52 56 57 53
f 59 60 61 62
f 63 66 65 64
f 59 63 64 60
f 62 61 65 66
f 59 62 66 63
f 60 64 65 61
f 67 69 70 68
f 69 71 72 70
f 71 73 74 72
f 73 75 76 74
f 75 77 78 76
f 77 79 80 78
f 79 81 82 80
f 81 67 68 82
f 69 67 83
f 68 70 84
f 71 69 83
f 70 72 84
f 73 71 83
f 72 74 84
f 75 73 83
f 74 76 84
f 77 75 83
f 76 78 84
f 79 77 83
f 78 80 84
f 81 79 83
f 80 82 84
f 67 81 83
f 82 68 84
f 85 86 87 88
f 89 92 91 90
f 85 89 90 86
f 88 87 91 92
f 85 88 92 89
f 86 90 91 87
f 93 95 96 94
f 95 97 98 96
f 97 99 100 98
f 99 101 102 100
f 101 103 104 102
f 103 105 106 104
f 105 107 108 106
f 107 93 94 108
f 95 93 109
f 94 96 110
f 97 95 109
f 96 98 110
f 99 97 109
f 98 100 110
f 101 99 109
f 100 102 110
f 103 101 109
f 102 104 110
f 105 103 109
f 104 106 110
f 107 105 109
f 106 108 110
f 93 107 109
f 108 94 110
f 111 112 113 114
f 115 118 117 116
f 111 115 116 112
f 114 113 117 118
f 111 114 118 115
f 112 116 117 113
f 119 121 122 120
f 121 123 124 122
f 123 125 126 124
f 125 127 128 126
f 127 129 130 128
f 129 131 132 130
f 131 133 134 132
f 133 119 120 134
f 121 119 135
f 120 122 136
f 123 121 135
f 122 124 136
f 125 123 135
f 124 126 136
f 127 125 135
f 126 128 136
f 129 127 135
f 128 130 136
f 131 129 135
f 130 132 136
f 133 131 135
f 132 134 136
f 119 133 135
f 134 120 136
f 137 138 139 140
f 141 144 143 142
f 137 141 142 138
f 140 139 143 144
f 137 140 144 141
f 138 142 143 139
f 145 147 148 146
f 147 149 150 148
f 149 151 152 150
f 151 153 154 152
f 153 155 156 154
f 155 157 158 156
f 157 159 160 158
f 159 145 146 160
f 147 145 161
f 146 148 162
f 149 147 161
f 148 150 162
f 151 149 161
f 150 152 162
f 153 151 161
f 152 154 162
f 155 153 161
f 154 156 162
f 157 155 161
f 156 158 162
f 159 157 161
f 158 160 162
f 145 159 161
f 160 146 162
f 163 164 165 166
f 167 170 169 168
f 163 167 168 164
f 166 165 169 170
f 163 166 170 167
f 164 168 169 165
